# AST/ASF file generated using VICON BodyLanguage
# -----------------------------------------------
:version 1.10
:name VICON
:units
  mass 1.0
  length 0.45
  angle deg
:documentation
   .ast/.asf automatically generated from VICON data using
   VICON BodyBuilder and BodyLanguage model FoxedUp or BRILLIANT.MOD
:root
   order TX TY TZ RX RY RZ
   axis XYZ
   position 0 0 0  
   orientation 0 0 0 
:bonedata
  begin
     id 1 
     name lhipjoint
     direction 0.602128 -0.715006 0.355257 
     length 2.21237 
     axis 0 0 0  XYZ
  end
  begin
     id 2 
     name lfemur
     direction 0.34202 -0.939693 0  
     length 6.71649  
     axis 0 0 20  XYZ
    dof rx ry rz
    limits (-160.0 20.0)
           (-70.0 70.0)
           (-60.0 70.0)
  end
  begin
     id 3 
     name ltibia
     direction 0.34202 -0.939693 0   
     length 6.97123   
     axis 0 0 20   XYZ
    dof rx
    limits (-10.0 170.0)
  end
  begin
     id 4 
     name lfoot
     direction 0.0655697 -0.180151 0.981451   
     length 1.80924   
     axis -90 7.62852e-016 20   XYZ
    dof rx rz
    limits (-45.0 90.0)
           (-70.0 20.0)
  end
  begin
     id 5 
     name ltoes
     direction 1.53545e-011 -4.21827e-011 1   
     length 0.916331   
     axis -90 7.62852e-016 20   XYZ
    dof rx
    limits (-90.0 20.0)
  end
  begin
     id 6 
     name rhipjoint
     direction -0.625414 -0.698792 0.347201   
     length 2.2637  
     axis 0 0 0  XYZ 
  end
  begin
     id 7 
     name rfemur
     direction -0.34202 -0.939693 0   
     length 7.07595   
     axis 0 0 -20   XYZ
    dof rx ry rz
    limits (-160.0 20.0)
           (-70.0 70.0)
           (-70.0 60.0)
  end
  begin
     id 8 
     name rtibia
     direction -0.34202 -0.939693 0   
     length 7.22924   
     axis 0 0 -20   XYZ
    dof rx
    limits (-10.0 170.0)
 end
 begin
     id 9 
     name rfoot
     direction -0.0766747 -0.210662 0.974547   
     length 1.98482  
     axis -90 -7.62852e-016 -20   XYZ
    dof rx rz
    limits (-45.0 90.0)
           (-20.0 70.0)
  end
  begin
     id 10 
     name rtoes
     direction -1.53532e-011 -4.21867e-011 1   
     length 0.999842   
     axis -90 -7.62852e-016 -20   XYZ
    dof rx
    limits (-90.0 20.0)
  end
  begin
     id 11 
     name lowerback
     direction -0.0224668 0.997354 -0.0691422   
     length 2.09945   
     axis 0 0 0   XYZ
    dof rx ry rz
    limits (-20.0 45.0)
           (-30.0 30.0)
           (-30.0 30.0)
  end
  begin
     id 12 
     name upperback
     direction 0.0134698 0.998451 -0.0539888   
     length 2.09758   
     axis 0 0 0   XYZ
    dof rx ry rz
    limits (-20.0 45.0)
           (-30.0 30.0)
           (-30.0 30.0)
  end
  begin
     id 13 
     name thorax
     direction 0.0241905 0.99948 -0.0213333   
     length 2.10428   
     axis 0 0 0   XYZ
    dof rx ry rz
    limits (-20.0 45.0)
           (-30.0 30.0)
           (-30.0 30.0)
  end
  begin
     id 14 
     name lowerneck
     direction -0.00866847 0.995978 0.0891737   
     length 1.3959   
     axis 0 0 0   XYZ
    dof rx ry rz
    limits (-20.0 45.0)
           (-30.0 30.0)
           (-30.0 30.0)
  end
  begin
     id 15 
     name upperneck
     direction 0.0680679 0.992203 0.104404   
     length 1.39452   
     axis 0 0 0   XYZ
    dof rx ry rz
    limits (-20.0 45.0)
           (-30.0 30.0)
           (-30.0 30.0)
  end
  begin
     id 16
     name head
     direction 0.0242216 0.999358 0.0264054  
     length 1.40433  
     axis 0 0 0   XYZ
    dof rx ry rz
    limits (-20.0 45.0)
           (-30.0 30.0)
           (-30.0 30.0)
  end
  begin
     id 17 
     name lclavicle
     direction 0.929368 0.362991 -0.0671771  
     length 3.04887  
     axis 0 0 0   XYZ
    dof ry rz
    limits (-20.0 10.0)
           (0.0 20.0)
  end
  begin
     id 18 
     name lhumerus
     direction 1 -4.48967e-011 -7.13741e-028   
     length 4.77195   
     axis -180 -30 -90   XYZ
    dof rx ry rz
    limits (-60.0 90.0)
           (-90.0 90.0)
           (-90.0 90.0)
  end
  begin
     id 19
     name lradius
     direction 1 -4.48977e-011 3.60404e-027   
     length 2.98444   
     axis -180 -30 -90   XYZ
    dof rx
    limits (-10.0 170.0)
  end
  begin
     id 20
     name lwrist
     direction 1 -4.48997e-011 7.54877e-027   
     length 1.49222   
     axis -7.18178e-015 90 90   XYZ
    dof ry
    limits (-180.0 0.0)
 end
  begin
     id 21 
     name lhand
     direction 1 -4.489e-011 1.51105e-026   
     length 0.992285   
     axis -9.63605e-015 90 90   XYZ
    dof rx rz
    limits (-90.0 90.0)
           (-45.0 45.0)
  end
  begin
     id 22 
     name lfingers
     direction 1 -4.48998e-011 3.01948e-026   
     length 0.800006   
     axis -1.92718e-014 90 90   XYZ
    dof rx
    limits (0.0 90.0)
  end
  begin
     id 23
     name lthumb
     direction 0.707107 -6.34881e-011 0.707107   
     length 1.14865   
     axis -90 45 -3.53137e-014   XYZ
    dof rx rz
    limits (-45.0 45.0)
           (-45.0 45.0)
  end
  begin
     id 24 
     name rclavicle
     direction -0.945672 0.324529 0.0196374   
     length 3.4236  
     axis 0 0 0   XYZ 
    dof ry rz
    limits (-10.0 20.0)
           (-20.0 0.0)
  end
  begin
     id 25 
     name rhumerus
     direction -1 -4.4896e-011 1.02757e-029  
     length 4.62052   
     axis -180 30 90   XYZ
    dof rx ry rz
    limits (-90.0 60.0)
           (-90.0 90.0)
           (-90.0 90.0)
  end
  begin
     id 26 
     name rradius
     direction -1 -4.48982e-011 3.85962e-027   
     length 2.95332   
     axis -180 30 90   XYZ
    dof rx
    limits (-10.0 170.0)
  end
  begin
     id 27 
     name rwrist
     direction -1 -4.48961e-011 7.55118e-027   
     length 1.47666   
     axis -7.18178e-015 -90 -90   XYZ
    dof ry
    limits (-180.0 0.0)
  end
  begin
     id 28
     name rhand
     direction -1 -4.48984e-011 1.50994e-026   
     length 0.990956   
     axis -9.63605e-015 -90 -90   XYZ
    dof rx rz
    limits (-90.0 90.0)
           (-45.0 45.0)
  end
  begin
     id 29
     name rfingers
     direction -1 -4.4892e-011 3.02158e-026   
     length 0.798934   
     axis -1.92718e-014 -90 -90   XYZ
    dof rx
    limits (0.0 90.0)
  end
  begin
     id 30
     name rthumb
     direction -0.707107 -6.34916e-011 0.707107   
     length 1.14711   
     axis -90 -45 3.53137e-014   XYZ
    dof rx rz
    limits (-45.0 45.0)
           (-45.0 45.0)
  end
:hierarchy
  begin
    root lhipjoint rhipjoint lowerback
    lhipjoint lfemur
    lfemur ltibia
    ltibia lfoot
    lfoot ltoes
    rhipjoint rfemur
    rfemur rtibia
    rtibia rfoot
    rfoot rtoes
    lowerback upperback
    upperback thorax
    thorax lowerneck lclavicle rclavicle
    lowerneck upperneck
    upperneck head
    lclavicle lhumerus
    lhumerus lradius
    lradius lwrist
    lwrist lhand lthumb
    lhand lfingers
    rclavicle rhumerus
    rhumerus rradius
    rradius rwrist
    rwrist rhand rthumb
    rhand rfingers
  end

#!OML:ASF H:\ManfredObstacles\Project 1\Capture day 1\Session 1\Male.ASF
:FULLY-SPECIFIED
:DEGREES
250
root -8.06423 16.2152 16.1701 -170.032 26.1457 -178.265
lowerback -9.86957 -0.379787 -0.555429
upperback 2.11018 -0.431451 -0.0632001
thorax 7.78279 -0.234246 0.175331
lowerneck 0.274594 -0.999049 -5.82227
upperneck -3.04058 -1.05663 9.08826
head -0.937336 -0.514572 4.02489
rclavicle 1.07841e-014 -8.34896e-015
rhumerus -37.0113 -11.8088 -80.1971
rradius 32.9805
rwrist 25.2301
rhand 2.83185 -5.25053
rfingers 7.12502
rthumb 28.2999 -33.1325
lclavicle 1.07841e-014 -8.34896e-015
lhumerus -33.7359 19.9788 74.565
lradius 17.5662
lwrist -38.0339
lhand -7.32227 9.15909
lfingers 7.12502
lthumb 18.5608 38.2936
rfemur -0.76564 2.88075 25.6855
rtibia 21.2764
rfoot -9.46388 29.5925
rtoes 43.1909
lfemur -32.0254 -4.16324 -15.1325
ltibia 17.3965
lfoot 8.9186 -3.90544
ltoes 14.1903
251
root -7.9858 16.237 15.9152 -171.228 26.678 -180.54
lowerback -10.1179 -0.553927 -2.86714
upperback 2.18273 -0.310319 -0.558954
thorax 8.01889 -0.26827 0.97203
lowerneck 0.142596 -0.999294 -6.00454
upperneck -2.87202 -1.05732 9.29615
head -0.858032 -0.509673 4.13242
rclavicle -3.44394e-014 1.70955e-014
rhumerus -37.3228 -12.3598 -79.7631
rradius 32.6277
rwrist 25.582
rhand 2.86118 -5.42192
rfingers 7.12502
rthumb 28.3279 -33.2993
lclavicle -3.44394e-014 1.70955e-014
lhumerus -33.8515 20.8222 74.1507
lradius 17.3084
lwrist -38.3754
lhand -7.25429 9.35363
lfingers 7.12502
lthumb 18.6262 38.4819
rfemur 0.185073 3.2876 23.2436
rtibia 21.8136
rfoot -9.02373 29.0779
rtoes 42.0844
lfemur -31.5176 -4.86184 -17.5081
ltibia 18.7664
lfoot 8.37905 -3.5765
ltoes 17.8782
252
root -7.91527 16.2386 15.6811 -170.771 26.352 -180.308
lowerback -10.5725 -0.694134 -2.83215
upperback 2.01992 -0.498466 -0.453866
thorax 8.11381 -0.360954 1.0292
lowerneck 0.197891 -1.0526 -6.07667
upperneck -2.79911 -1.12671 9.53175
head -0.837444 -0.544395 4.23147
rclavicle 2.82274e-014 -1.98785e-015
rhumerus -37.7208 -13.4463 -79.109
rradius 32.0871
rwrist 26.3098
rhand 2.89786 -5.36598
rfingers 7.12502
rthumb 28.3629 -33.2375
lclavicle 2.82274e-014 -1.98785e-015
lhumerus -33.8901 21.4744 73.7258
lradius 16.9453
lwrist -38.9987
lhand -7.32793 9.36716
lfingers 7.12502
lthumb 18.5554 38.5022
rfemur 0.0730539 3.37521 23.406
rtibia 23.0259
rfoot -7.85779 28.455
rtoes 41.5528
lfemur -31.7703 -5.11194 -17.4364
ltibia 19.9561
lfoot 7.93416 -4.11092
ltoes 16.7327
253
root -7.85109 16.2431 15.4433 -170.769 26.0396 -180.485
lowerback -10.7371 -0.810443 -3.03527
upperback 1.9511 -0.615164 -0.503604
thorax 8.14183 -0.424637 1.0695
lowerneck 0.26722 -1.16185 -5.87481
upperneck -2.76226 -1.27414 9.53338
head -0.825861 -0.620384 4.19225
rclavicle 5.85918e-014 -1.27222e-014
rhumerus -38.2191 -14.5776 -78.4572
rradius 31.6154
rwrist 26.9024
rhand 2.79139 -5.3713
rfingers 7.12502
rthumb 28.2612 -33.2597
lclavicle 5.85918e-014 -1.27222e-014
lhumerus -33.7932 21.8613 73.4049
lradius 16.6463
lwrist -39.7382
lhand -7.37267 9.3519
lfingers 7.12502
lthumb 18.5124 38.491
rfemur -0.183077 3.12758 23.0866
rtibia 25.0579
rfoot -5.83587 28.1471
rtoes 41.9547
lfemur -31.41 -5.50668 -17.7818
ltibia 20.7941
lfoot 7.23688 -4.59541
ltoes 15.1902
254
root -7.78757 16.2555 15.2034 -171.019 25.8371 -180.862
lowerback -10.709 -0.902096 -3.4278
upperback 1.893 -0.67844 -0.563284
thorax 8.07146 -0.469444 1.21703
lowerneck 0.420793 -1.27067 -5.77081
upperneck -2.721 -1.43038 9.49693
head -0.827354 -0.703086 4.16005
rclavicle 7.9166e-014 0
rhumerus -38.8566 -15.4692 -77.7679
rradius 31.2365
rwrist 27.2222
rhand 2.63193 -5.54449
rfingers 7.12502
rthumb 28.1088 -33.458
lclavicle 7.9166e-014 0
lhumerus -33.7949 22.0962 73.2517
lradius 16.5094
lwrist -40.3324
lhand -7.26539 9.36816
lfingers 7.12502
lthumb 18.6156 38.4974
rfemur -0.528713 2.65828 22.5087
rtibia 27.4833
rfoot -4.31627 27.7397
rtoes 41.1896
lfemur -30.9054 -5.71422 -18.4401
ltibia 21.8671
lfoot 6.22597 -5.39594
ltoes 15.4514
255
root -7.72517 16.2737 14.9635 -171.189 25.8955 -181.052
lowerback -10.6929 -0.874051 -3.63194
upperback 1.81363 -0.611823 -0.590863
thorax 7.97627 -0.442747 1.31548
lowerneck 0.608918 -1.37626 -5.91361
upperneck -2.65582 -1.57291 9.82456
head -0.825237 -0.777259 4.3085
rclavicle 2.52457e-014 -2.06736e-014
rhumerus -39.5872 -16.1821 -77.1107
rradius 31.0076
rwrist 27.3411
rhand 2.6769 -5.68857
rfingers 7.12502
rthumb 28.1518 -33.595
lclavicle 2.52457e-014 -2.06736e-014
lhumerus -33.8155 21.8918 73.299
lradius 16.5098
lwrist -40.4994
lhand -7.13479 9.15749
lfingers 7.12502
lthumb 18.7412 38.2747
rfemur -1.25223 1.94048 21.965
rtibia 30.4604
rfoot -1.44218 27.307
rtoes 40.791
lfemur -30.2194 -5.40165 -19.0506
ltibia 22.674
lfoot 5.36138 -6.34368
ltoes 15.9188
256
root -7.66459 16.2939 14.7225 -171.274 26.2529 -181.102
lowerback -10.8141 -0.781583 -3.66593
upperback 1.82384 -0.475574 -0.613466
thorax 8.05029 -0.378461 1.33352
lowerneck 0.624484 -1.45355 -6.00054
upperneck -2.62746 -1.66397 10.1573
head -0.808043 -0.820987 4.44652
rclavicle 5.60076e-014 -6.75868e-015
rhumerus -40.1547 -16.4674 -76.7467
rradius 30.9895
rwrist 27.2469
rhand 2.83796 -5.60635
rfingers 7.12502
rthumb 28.3057 -33.4874
lclavicle 5.60076e-014 -6.75868e-015
lhumerus -33.6425 21.0397 73.7417
lradius 16.8117
lwrist -39.7637
lhand -7.04017 9.02495
lfingers 7.12502
lthumb 18.8322 38.1333
rfemur -2.34997 1.09358 21.3749
rtibia 33.9489
rfoot 2.00275 26.8258
rtoes 40.166
lfemur -29.3841 -4.82513 -19.551
ltibia 23.2466
lfoot 4.47428 -7.14554
ltoes 16.464
257
root -7.60561 16.3117 14.4903 -171.361 26.7239 -181.2
lowerback -10.9031 -0.689903 -3.73236
upperback 1.87287 -0.334317 -0.656941
thorax 8.14756 -0.313526 1.34893
lowerneck 0.506824 -1.53767 -5.93304
upperneck -2.61083 -1.76551 10.2566
head -0.771766 -0.867795 4.46727
rclavicle 1.48592e-014 -1.59028e-015
rhumerus -40.4818 -16.4837 -76.584
rradius 30.9607
rwrist 27.1899
rhand 2.90863 -5.36261
rfingers 7.12502
rthumb 28.3732 -33.2324
lclavicle 1.48592e-014 -1.59028e-015
lhumerus -33.2766 19.5705 74.6139
lradius 17.4323
lwrist -37.812
lhand -6.60179 9.38191
lfingers 7.12502
lthumb 19.2538 38.4488
rfemur -3.85534 0.211187 20.6761
rtibia 37.9209
rfoot 6.13842 25.598
rtoes 41.2234
lfemur -28.4793 -4.00528 -20.1302
ltibia 23.5921
lfoot 3.63946 -7.9648
ltoes 17.2597
258
root -7.54974 16.3312 14.2708 -171.3 27.1708 -181.218
lowerback -10.882 -0.61628 -3.71911
upperback 1.83194 -0.239492 -0.661941
thorax 8.08602 -0.265203 1.35346
lowerneck 0.374537 -1.61398 -5.87841
upperneck -2.58302 -1.86139 10.2922
head -0.730126 -0.91169 4.46702
rclavicle -3.23025e-015 -3.18055e-015
rhumerus -40.685 -16.2229 -76.5553
rradius 30.9285
rwrist 27.0983
rhand 3.03513 -5.30898
rfingers 7.12502
rthumb 28.4941 -33.1586
lclavicle -3.23025e-015 -3.18055e-015
lhumerus -32.965 17.9209 75.5771
lradius 18.2124
lwrist -35.0875
lhand -5.87773 9.99659
lfingers 7.12502
lthumb 19.9499 38.9925
rfemur -5.84883 -0.670848 20.0827
rtibia 42.2991
rfoot 9.53962 24.0338
rtoes 41.8516
lfemur -27.6407 -3.05523 -20.614
ltibia 23.6986
lfoot 2.98153 -8.84223
ltoes 17.7401
259
root -7.49699 16.3541 14.0603 -171.237 27.5581 -181.304
lowerback -10.6986 -0.624029 -3.76651
upperback 1.72698 -0.253867 -0.666394
thorax 7.86848 -0.269201 1.37452
lowerneck 0.185557 -1.62857 -5.87315
upperneck -2.47294 -1.87901 10.3468
head -0.658223 -0.913949 4.48195
rclavicle 2.20154e-014 -1.35174e-014
rhumerus -40.8375 -15.7798 -76.6245
rradius 30.9637
rwrist 27.0421
rhand 3.2265 -5.25775
rfingers 7.12502
rthumb 28.677 -33.0766
lclavicle 2.20154e-014 -1.35174e-014
lhumerus -32.9325 16.5666 76.2533
lradius 19.0211
lwrist -32.9307
lhand -5.57808 10.2791
lfingers 7.12502
lthumb 20.2379 39.2448
rfemur -8.1723 -1.56449 19.4672
rtibia 46.974
rfoot 11.9403 22.5502
rtoes 39.838
lfemur -26.7664 -2.23604 -21.0896
ltibia 23.5246
lfoot 2.53652 -9.61855
ltoes 18.7547
260
root -7.44337 16.3758 13.8527 -171.445 27.9298 -181.66
lowerback -10.4399 -0.671667 -4.01339
upperback 1.70928 -0.28484 -0.788008
thorax 7.70431 -0.287797 1.38098
lowerneck 0.10852 -1.60576 -5.88973
upperneck -2.47781 -1.8325 10.5659
head -0.648103 -0.886602 4.5642
rclavicle 5.09386e-014 -9.54166e-015
rhumerus -40.9223 -15.5865 -76.7081
rradius 31.0424
rwrist 27.2704
rhand 3.41577 -5.05083
rfingers 7.12502
rthumb 28.8578 -32.839
lclavicle 5.09386e-014 -9.54166e-015
lhumerus -32.9692 15.2388 76.762
lradius 19.8476
lwrist -31.4572
lhand -5.49601 10.4573
lfingers 7.12502
lthumb 20.3168 39.4146
rfemur -10.5452 -2.41136 18.6372
rtibia 51.7834
rfoot 13.883 20.8643
rtoes 37.6642
lfemur -25.6553 -1.48839 -21.7923
ltibia 23.1098
lfoot 2.20702 -10.3777
ltoes 19.9611
261
root -7.38687 16.3954 13.6521 -171.802 28.3811 -182.162
lowerback -10.2301 -0.770086 -4.46772
upperback 1.81499 -0.353954 -0.87911
thorax 7.70612 -0.339239 1.52899
lowerneck 0.169943 -1.52315 -5.95679
upperneck -2.7353 -1.69302 10.7458
head -0.753971 -0.819337 4.6475
rclavicle -3.21037e-014 2.54444e-014
rhumerus -40.7731 -15.3746 -76.769
rradius 31.1776
rwrist 27.6071
rhand 3.58572 -4.91919
rfingers 7.12502
rthumb 29.0201 -32.6795
lclavicle -3.21037e-014 2.54444e-014
lhumerus -32.861 14.2365 77.2573
lradius 20.547
lwrist -30.2645
lhand -5.39897 10.7722
lfingers 7.12502
lthumb 20.41 39.7195
rfemur -13.0072 -2.98031 17.7551
rtibia 56.5089
rfoot 15.4961 18.9315
rtoes 37.0888
lfemur -24.4027 -0.884471 -22.5728
ltibia 22.543
lfoot 1.81008 -10.9244
ltoes 20.3858
